<?xml version="1.0" encoding="UTF-8"?>
<svg viewBox="0 0 210.94 210.42" xmlns="http://www.w3.org/2000/svg">
 <g fill="#000000" fill-rule="evenodd">
  <path d="m93.611 1.249c1.305-0.265 1.653 0.428 2.497 0.624-1.32 2.364 0.241 3.899 0 6.865-1.862-0.01-2.122-1.623-3.745-1.872 1.283-1.007 1.448-3.13 1.248-5.617z"/>
  <path d="m90.491 8.737c1.596-0.027 0.761 0.464 0.624 1.248-0.164 2.037 1.941 1.803 2.496 3.121-1.038 3.746-2.911 6.658-6.241 8.113 0.495 2.432 0.645 3.236-0.624 4.993-2.015 0.558-0.877-2.036-1.872-2.497-1.147 2.389-0.884 6.189-4.369 6.241-1.002-2.118-0.374-5.866-1.872-7.489 3.433-0.935 3.021-5.716 6.241-6.865 1.703-0.455 1.256 1.24 2.496 1.248 2.018-1.727 2.63-4.859 3.121-8.113z"/>
  <path d="m10.609 13.106c-0.272 0.768-0.799 1.281-1.873 1.248 0.273-0.768 0.8-1.282 1.873-1.248z"/>
  <path d="m102.97 15.602c1.923 2.663 8.546 3.923 6.24 8.737-0.185 1.641 2.422 0.491 1.873 2.497-3.359-1.425-6.092-3.478-8.737-5.617-0.334-2.414 1.114-3.047 0.624-5.617z"/>
  <path d="m9.985 16.85c-0.683 2.961-4.41 2.933-2.497 6.865-0.554 0.485-1.408 0.671-2.495 0.624-0.43 1.678 1.29 1.207 1.872 1.873-2.465 1.352 0.425 2.592 0.624 4.368 0.4 3.559-1.4 8.128 0 12.482-2.091 1.218-4.307 5.001-6.865 3.744 3.942-3.583 2.032-7.842 1.873-12.481-0.197-5.735 2.132-10.153 3.12-15.602 1.438-0.642 2.012-2.149 4.368-1.873z"/>
  <path d="m54.918 34.324c0.268 2.764-1.041 3.952-3.12 4.369 0.885-2.319-0.751-4.376 3.12-4.369z"/>
  <path d="m163.51 36.196h1.872v2.497c-2.083 0.626-2.046-0.866-1.872-2.497z"/>
  <path d="m71.769 64.28c1.263 1.719-1.907 3.175-3.121 4.369-2.02-0.296-7.059-0.81-5.617-2.497 1.264-2.273 5.802-1.271 8.738-1.872z"/>
  <path d="m143.54 70.521c-1.341 4.853 1.927 11.15-4.368 11.233-0.373-2.245 0.22499-3.52 1.872-3.745-0.477-1.812-2.958-1.619-2.496-4.369 1.447 0.199 2.396-0.099998 3.12-0.624-0.465-1.407-3.5-0.244-4.992-0.624v-1.872c1.277-0.965 5.586-0.965 6.864 0.001007z"/>
  <path d="m66.776 70.521c-2.093 2.882 0.6 2.05 0.624 5.617-3.402 0.134-7.503-0.43-9.985 0.624 0.468-2.132-2.535-0.793-1.872-3.121 4.18-0.604 6.747-2.823 11.233-3.12z"/>
  <path d="m107.34 71.145c1.447-0.199 2.396 0.10001 3.121 0.624-1.302 4.731-2.347 9.719-6.241 11.857 1.267-3.934 2.637-7.765 3.12-12.481z"/>
  <path d="m54.294 83.626c0.935-0.938 1.117-2.628 2.496-3.12-0.141-0.89899-1.862-0.218-1.872-1.249 1.691-3.925 6.894 0.337 11.233-1.872-1.402 1.642-5.254 3.433-6.865 1.248-1.106 1.447 0.137 4.975-4.992 4.993z"/>
  <path d="m126.06 79.882c0.17 4.538-3.008 5.729-6.865 6.24 0.604-3.482 2.548-8.503 6.865-6.24z"/>
  <path d="m75.513 81.754c4.119-2.23 6.499 2.643 9.985 3.12-0.233 3.451-4.695-0.679-3.745 4.369-1.764-0.516-1.617 0.879-3.12 0.624-0.676-3.068-2.098-5.391-3.12-8.113z"/>
  <path d="m60.535 83.002c-1.167 1.623-0.877 5.959 0.624 6.865 3.711-0.35799 6.765-2.143 10.609-0.624 0.268 1.188 1.344 1.568 1.248 3.121 2.031-0.911 3.921 2.942 6.865 3.12 4.808-1.017 6.205-5.445 8.113-9.361 1.892-0.020004 0.604 3.14 2.497 3.121-1.508 4.108-5.035 6.199-8.737 8.113 0.204 4.988-0.081001 9.488-1.248 13.105-8.787 0.605-16.41 5.598-23.091 6.241 1.102-3.475 4.624-4.53 6.241-7.489 4.078 2.207 9.293-1.349 12.481-3.744-2.737-1.459-9.342-0.976-11.233-5.617-0.897-2.201-0.78-5.499 0.624-8.113-4.761 4.044-16.161-7.58-4.993-8.738zm11.234 18.722c1.634 0.558 5.663 0.756 6.865-1.248 1.06-3.983-5.745-5.48-8.737-7.489-2.823 1.964-1.59 7.556 1.872 8.737z"/>
  <path d="m106.09 84.25h1.248v1.872h-1.872c-0.176-1.008 0.59-1.074 0.624-1.872z"/>
  <path d="m116.7 84.25c1.816-1.196 0.764 6.077-0.624 3.745 1.125 2.411 1.363 5.709 4.368 6.241 4.168-2.489 9.704-3.609 14.354-5.617 2.394 2.816 1.783 11.174-2.497 11.233-1.693-2.006 0.921-3.701 0.62401-6.241-4.67-1.747-8.574 2.651-11.233 4.993 0.321 3.008 2.113 4.544 4.993 4.992-0.072998 3.463-4.597 2.477-6.865 3.745-0.038002 3.574 1.784 5.289 1.248 9.361 0.988 1.256 4.281 2.271 2.497 4.368-2.859 0.154-2.43-2.979-4.993-3.12 0.10001-3.845-0.033997-7.455-2.496-8.737 0.444-1.844 0.172-4.405 1.872-4.992 0.185-1.642-2.421-0.491-1.872-2.497h2.496c0.28101-6.609-4.788-7.565-6.864-13.105 2.585-0.535 4.891-1.349 4.992-4.369z"/>
  <path d="m193.46 86.747c1.966-0.302 1.413 1.915 3.745 1.248-1.39 3.497 0.54799 5.658 0.62399 9.361-3.016-1.667-5.082-7.254-4.369-10.609z"/>
  <path d="m191.59 91.739h1.872c1.185 5.057 3.452 9.03 4.993 13.73-4.787-2.078-5.691-8.039-6.865-13.73z"/>
  <path d="m86.746 95.483c1.021 1.063-0.169 5.208-0.624 6.865-2.673-1.099-0.893-6.073 0.624-6.865z"/>
  <path d="m71.145 97.355c1.425-0.82101 3.235-0.652 4.993 0 0.454 1.703-1.24 1.256-1.249 2.497-2.191 0.111-2.053-2.108-3.744-2.497z"/>
  <path d="m128.56 97.355c0.511 3.3-3.048 3.788-4.368 1.873 0.65599-1.434 2.823-3.234 4.368-1.873z"/>
  <path d="m80.505 112.96c4.528 1.543 1.57 8.906 0.624 10.609-1.83-0.042-2.318-1.426-3.12-2.496 0.666-2.87 2.283-4.79 2.496-8.113z"/>
  <path d="m188.47 119.2c-1.787 0.123-3.406 0.077003-3.12-1.872 1.204-1.214 3.819-0.65199 3.12 1.872z"/>
  <path d="m184.1 121.69h1.872c0.016006 10.863 0.722 17.01 0.62401 23.715-3.372 0.252-2.659-3.582-5.617-3.744 0.19899 3.129 4.024 2.633 3.745 6.24-6.318-0.8-7.374-9.377-4.369-14.354 1.504-0.25499 1.356 1.14 3.121 0.62401-1.301-3.646-0.063995-8.876 0.62401-12.481z"/>
  <path d="m141.04 131.68c-4.447 0.605-8.498-4.328-11.857-6.865 4.036-2.549 10.054 3.084 11.857 6.865z"/>
  <path d="m66.152 125.44c0.453 1.909-1.077 1.836-0.624 3.745 2.308-0.188 0.999-3.994 4.368-3.121 1.456 3.678-0.464 6.875-1.872 10.609-2.336-3.583-2.171 2.774-5.617 1.873 0.864-3.891-2.184-1.495-3.12-2.497-0.085999-5.574 2.445-11.589 6.865-10.609z"/>
  <path d="m168.5 126.06c3.271 2.126 3.473 6.811 1.248 9.985-3.167-1.407-3.955-1.93-7.488-0.62399-0.59599-3.433 6.177-4.011 6.24-1.248 1.472-1.861-2.998-6.371 0-8.113z"/>
  <path d="m136.05 136.05c-0.485 0.556-0.671 1.409-0.62401 2.497-2.756 0.366-2.153-3.37 0.62401-2.497z"/>
  <path d="m168.5 138.54c-1.298 1.354-2.017-0.076004-3.12-0.625-0.07901 1.12 0.76399 1.316 0.62399 2.497-1.899-0.39002-3.19-1.387-3.12-3.745 2.095-0.98399 5.087-0.44299 5.616 1.873z"/>
  <path d="m133.55 140.42c1.645-0.188 2.049 0.864 1.873 2.496-1.644 0.189-2.049-0.86401-1.873-2.496z"/>
  <path d="m174.74 145.41c-1.756 1.808 4.318 3.661 2.496 5.617-4.033-0.12801-5.601-2.721-6.865-5.617 2.372-1.373 2.855-4.634 6.241-4.992-1.064 5.149 5.917 5.134 3.744 9.36-2.524-0.80299-3.769-2.887-5.616-4.368z"/>
  <path d="m102.35 146.03c-0.086998 1.785-2.604 1.142-4.369 1.248-0.486-3.223 3.413-2.739 4.369-1.248z"/>
  <path d="m68.648 146.03c-0.749 3.479-3.546 6.706-4.992 9.985-0.643 1.457 0.619 4.723-2.497 4.368-2.59-5.81 1.85-12.883 7.489-14.353z"/>
  <path d="m137.3 164.13c0.27501-6.933-3.644-9.67-4.993-14.979 0.899-0.349 1.523-0.97301 1.872-1.872 3.883 2.216 8.32 13.384 3.121 16.851z"/>
  <path d="m104.22 151.65c-2.583-0.53801-5.922-0.31801-8.113-1.248 1.643-1.77 7.908-1.986 8.113 1.248z"/>
  <path d="m167.25 151.65c-0.080002 3.358-2.542 9.441-6.24 11.233-0.306-1.97 1.124-2.204 0.62399-4.369-1.437 1.269-1.675 3.734-1.872 6.241-2.468-0.37801-3.619 2.438-5.617 0.62399 0.97099-4.854 3.417-8.233 7.489-9.985v2.496c1.974-1.978 1.187-6.718 5.616-6.24z"/>
  <path d="m105.47 154.77c-2.759 1.524-8.593 2.888-12.481 1.248 1.886-3.097 8.763-1.682 12.481-1.248z"/>
  <path d="m154.15 159.76c1.453 1.698-1.459 4.339-1.248 6.865-4.331-2.77-3.186 3.374-6.865 3.12-0.07901 1.119 0.765 1.316 0.625 2.496-0.79901 0.854-2.947 0.854-3.745 0 0.10101-0.731 1.138-0.526 1.872-0.62401-0.57201-7.829 5.567-10.213 9.361-11.857z"/>
  <path d="m123.57 167.25h1.248v1.248h-1.248v-1.248z"/>
  <path d="m19.346 186.6c1.831 0.53101-0.812 1.571 0 3.121 3.08 0.325 3.892-4.072 6.865-1.872-4.06 4.844-5.298 13.867 1.873 16.226-0.627 0.829-0.59 2.322-1.873 2.496-1.696-1.501-3.703-1.305-6.241-0.62401 2.021-4.063 0.243-7.509-3.744-8.737 1.526-1.6 0.479-4.146-2.497-3.12 0.582-3.788 4.387-4.352 5.617-7.49z"/>
  <path d="m195.96 39.317c-0.31599-2.178-1.528-5.722 0.62399-6.865-2.13-2.031-0.829-7.492-4.369-8.113 1.195-1.752 3.254 0.858 4.993 0.624 4.551 4.502-0.55501 13.988 1.248 17.474-3.039 4.451-4.95 10.027-8.737 13.73 0.38 1.492-0.783 4.528 0.62399 4.992-1.452 1.812-3.362-1.172-5.616-0.624 6.289 7.489 9.915 14.585 14.354 23.091-2.708 3.125-6.715-2.614-8.737-5.617-2.18-3.236-5.469-5.664-4.368-8.113-3.055-7.347-10.394-10.409-18.099-13.105v-5.617c2.372 0.125 2.368 2.624 4.993 2.496-0.367-2.943-3.244-4.195-0.62401-6.865-0.29199-3.453-4.861-2.627-5.617-5.617 1.494-1.42 2.298 1.369 4.993 0.624-1.893-1.864-1.271-4.879 0.62399-6.241-1.778-1.426-5.221 1.125-6.865-1.248-0.953-1.075 0.879-2.932-1.248-3.745 2.337-4.112 10.521-2.376 9.985-9.361 2.158-0.507 2.635 1.165 3.744 0 0.49-2.57-0.95799-3.203-0.62399-5.617 1.955-0.541 3.446-1.546 4.368-3.121-0.204-2.291-1.748-3.244-3.744-3.744-6.039 2.281-12.1 4.542-16.226 8.737 0.192 0.847 1.562 0.518 2.496 0.624 0.5 2.165-0.92999 2.399-0.62399 4.369-1.447-0.199-2.396 0.101-3.12 0.624-1.119 3.042-4.413 3.909-5.617 6.865-3.716-1.277-7.275-2.709-8.112-6.865-12.967-0.901-21.376-9.521-33.076-8.737-2.483-3.341-5.909-5.74-8.737-8.737-0.671 1.826-2.8 2.192-5.617 1.873-0.95499-1.136-2.2-3.857-1.248-4.993 1.285 0.171 0.587 2.325 1.872 2.496 0.96201-0.196-2.074-3.525 0-4.993 2.104 0.809 1.495 4.33 3.745 4.993 2.431-0.629 0.097-2.148 0.624-4.368 1.512-1.329 2.76 1.39 3.744 2.496 1.472-0.192 1.161-2.167 3.121-1.872 6.353 5.92 16.779 7.767 24.339 12.481 0.69899 1.965 0.056 1.413 0 3.744 5.496 1.369 11.68 2.05 14.354 6.241 1.852-0.229 3.078-1.082 3.744-2.496-0.077988-1.378-2.647-0.265-3.744-0.624 0.069-1.179 2.063-0.433 1.872-1.872-0.22101-0.82-1.099-0.982-1.248-1.873-3.767 0.866-7.81 2.067-10.609-0.624 0.87999-3.177 4.312-0.937 6.24 0 1.608-0.68 3-1.577 3.745-3.12 2.119 0.585 1.91 3.498 3.12 4.992 2.441-2.135 4.615-4.537 8.737-4.992 6.077-5.861 19.396-12.087 28.083-6.241-2.123 8.285 9.335 8.503 4.992 14.978-1.829-1.707-2.524-4.548-3.744-6.865-1.657 0.247-3.551 2.692-3.744-0.624-2.753-0.048-1.796 3.612-5.617 2.496-0.742 7.371-3.538 12.687-10.609 13.729 0.27301 3.228 4.971 4.778 8.113 3.121-0.085999-1.162-0.41-2.086-1.248-2.496 3.133-1.028 4.067-4.254 8.737-3.745 2.574 4.247-2.534 5.629-2.496 9.361-1.19 0.266-1.13 1.783-3.121 1.249-1.171 1.19 0.371 1.129 0 3.12-1.109 0.555-1.586 1.742-3.744 1.248-0.20601 4.075-1.302 7.617 0.62399 10.609-0.582 0.666-2.302 0.194-1.872 1.872 0.89499 1.81 2.314 3.094 4.368 3.745 4.097-1.866 0.043991-8.11 3.745-9.985-0.45799-0.583-1.135-0.945-1.873-1.248 1.145-1.976 4.345-1.896 6.865-2.496-0.15401 0.678-1.241 0.423-1.248 1.248-0.105 1.354 2.214 0.283 3.12 0.624 0.30701-2.725-1.924-1.328-0.62399-3.744-1.459 0.205-2.578 0.75-3.744 1.248 0.151-2.147 7.56-2.412 9.36-4.991zm-9.985-10.609c-2.102-1.896-1.892 2.307 0 0zm-12.481 6.864c0.14 0.484 0.016998 1.231 0.62401 1.248 0.006989-0.825 1.094-0.57 1.248-1.248-0.89101-0.243-1.053-0.749-1.872 0zm4.992 1.248c0.579 1.332 4.538 0.853 3.744-1.248-1.286 0.378-4.335-1.007-3.744 1.248zm9.361 11.234c-3.21 1.508 2.149 1.613 0 0z"/>
  <path d="m26.211 92.987c1.527 0.774-1.87 1.815-1.872 3.12 2.798 0.738 1.67 5.402 1.872 8.737-1.501-1.97-8.004-4.403-4.368-7.489-1.366-1.546-4.423-1.402-4.993-3.744-0.406-2.695 1.078-3.499 1.872-4.993 0.105-1.354-2.213-0.283-3.12-0.62399 2.994-4.703 6.589-8.805 10.609-12.481-2.119-1.671-3.183 3.034-6.241 2.496-0.647-3.344 4.951-4.741 7.489-6.865-0.789-4.117 2.559-4.097 3.12-6.865-1.573-0.715-6.265 0.789-6.241 3.745-0.724-0.524-1.673-0.82301-3.12-0.625 2.736 3.933-2.311 5.101-3.121 6.865-1.115 2.431-0.709 4.752-0.624 7.489-1.842 0.862-2.527 2.882-4.369 3.744 1.747 2.333 0.033 6.548-1.872 8.737 1.75-0.799 1.199 0.854 3.745 1.872-0.525 2.803-2.942 3.715-3.745 6.241-0.158 2.238 1.874 2.287 1.872 4.369-0.865 1.007-1.768 1.977-2.496 3.12 0.57 2.095 1.16 0.31 3.12 0.624 0.488 1.807-1.756 6.193 2.497 6.241-0.208 1.455-0.64 2.688-1.873 3.12 1.262 0.818 3.481 0.68 2.497 3.744 1.907-0.589 1.956-3.036 4.369-3.12 1.683 1.757-1.107 2.561-0.625 4.992 0.543 1.844 0.935-1.447 2.497-0.62399 1.062 2.221 1.283 2.733-0.624 4.369 1.054 0.64099 1.761 4.846 1.872 4.992 2.712 3.604 6.938 2.411 8.737 6.865 2.714-2.182 4.144 0.235 8.113 0-0.851 0.795-0.964 3.057 0.624 3.12 4.027 0.283 2.432-5.057 6.865-4.368-1.433-1.745-0.343-4.965 2.496-4.369 1.022 2.694-2.07 6.093-3.744 8.113 1.59 0.52699 4.25-3.222 6.241-4.368 1.937-0.065002 1.781 1.963 4.369 1.248 0.057999 4.322-4.199 8.896 0 11.857-3.11 5.463 0.41 13.067 0 16.226-3.189-0.556-5.261-2.229-6.241-4.992-3.542 0.14101-5.118-1.103-8.113 0-1.04-1.24 0.056999-0.79399 0-2.497-1.563-0.10701-1.515 1.397-2.496 1.873-1.815-0.543-0.702-0.935-0.624-2.497-4.361 0.541-6.095 0.26001-10.609 0-1.166-1.109 0.507-1.586 0-3.744h-2.496c-3.954 6.031-8.163 11.808-14.978 14.978 1.473 2.213 5.793 7.792 0.624 9.361-0.718-0.737-0.706-2.206-0.624-3.744h-4.369c0.978-1.98 1.127-4.747-2.496-3.745v-2.496c1.181-1.238 2.948-0.30299 4.369 0 1.447-0.694-1.216-2.47-1.873-3.12 3.091-6.062 8.315-9.991 10.609-16.85-0.501-1.509-2.569 1.958-3.744 0 0.759-2.153 2.526-3.299 3.744-4.993-0.944-1.887-2.739 0.518-4.369 0-0.441-3.978 4.438-2.635 4.993-5.616-2.724-0.437-2.775 1.802-4.993 1.872 0.451-2.811 2.221-3.66-1.248-4.369 0.769-1.311 1.728-2.433 2.497-3.744 0.177-1.899-2-2.427-0.624-3.744-0.798-0.866-2.947-0.382-3.745-1.248 1.314-1.627 0.905-5.526-2.497-4.369-1.902-1.639 3.088-4.941-1.248-4.992-0.465-1.921 1.713-1.199 1.248-3.12-1.761-0.098007-1.564 1.764-2.496 2.496-1.512-0.36-1.388-2.356-1.872-3.744 1.332-0.749 3.399-0.762 3.744-2.497-0.259-1.386-3.422-0.599-3.12 0.625-2.043-1.285-3.428-3.229-4.993-4.993 4.604-5.173 7.032-12.522 10.609-18.722 0.163-1.827-1.411-1.917-1.248-3.745 1.858-1.886 3.305-4.184 4.992-6.24-0.184-1.457-1.688-1.457-1.872 0-1.135-2.198 3.773-3.699 2.497-8.113 1.126-1.37 2.435-2.558 3.12-4.369-1.459-6.654-8.04-8.186-12.481-11.857-1.006-4.624-2.985-7.318 0.624-10.609 1.927 0.153 3.528 0.633 4.993 1.248 0.163 1.827-1.411 1.917-1.248 3.745 0.769 1.896 2.146-0.677 3.744 0-0.626 2.914 1.088 3.488 3.745 3.12-0.468 4.212 3.927 3.562 3.745 7.489 4.815-1.009 6.612-5.037 9.985-7.489-2.441-1.511-4.315-3.589-8.737-3.12 0.092001-3.004-3.276-2.549-4.369-4.369-0.141-1.565 3.251-4.66-0.624-4.369-0.024-2.312 0.958-3.618 1.872-4.993h4.369c-0.532-4.46-4.17-5.814-7.489-7.489 2.186-4.19-1.58-13.471 7.489-13.729 2.033 5.15-0.811 12.321 5.617 14.978-1.615 1.605 0.522 2.645 1.872 3.121-0.539 1.949-2.231 3.089 0.624 3.744 0.185 1.641-2.421 0.491-1.872 2.497 6.931 3.093 8.688-6.707 14.978-4.369-0.114-3.159 2.877-4.928 4.369-8.113-2.008-2.452-2.212-2.583-5.617-1.873-1.007-1.697-2.781-2.627-4.993-3.12 0.101-0.731 1.138-0.526 1.873-0.624-0.076-1.588-0.908-2.42-2.497-2.496-0.509-9.026-12.676-9.168-17.474-8.737 1.067-6.125 12.26-2.466 17.474-1.872 5.165 5.652 10.889 10.746 18.722 13.729 5.684-4.51 13.922-6.465 17.474-13.105 8.315 0.618 9.668-5.726 16.85-6.241 0.052002 12.963-16.255 12.466-23.715 18.722-1.503 0.255-1.356-1.14-3.12-0.624-4.35 3.971-9.171 7.471-13.73 11.233-0.305 1.97 1.125 2.204 0.624 4.368-1.687 1.226-3.788 2.037-4.992 3.745 0.907 1.85 2.434-0.822 4.368 0-2.122 4.743-2.753 10.976-7.489 13.105-0.049999 8.687-7.254 10.219-11.857 14.354 1.951 1.707 4.845-0.953 6.241-1.872 1.383 2.133-3.612 2.142-0.624 4.993-3.382-0.469-3.67 2.154-5.617 3.12 0.87 1.878 3.23-1.297 4.369 0.625-1.465 2.903-4.509 4.228-6.241 6.865-0.43 1.678 1.29 1.206 1.872 1.872-0.963 5.069-5.078 6.987-7.489 10.609 0.171 1.471 2.325-0.057999 2.496-0.625zm19.346-69.272h1.249c0.97-1.536-2.12-1.835-1.873-0.624 0.381 0.035 0.739 0.093 0.624 0.624zm-35.572 91.739c1.632 0.176 2.684-0.229 2.496-1.872-1.562-0.106-1.953 0.958-2.496 1.872zm7.489 21.218c2.035 0.16301 3.003-0.73999 3.12-2.496-1.829 0.042999-2.318 1.427-3.12 2.496zm4.993 3.121c1.074 0.033005 1.6-0.48 1.872-1.248-0.981 0.059006-2.164-0.084-1.872 1.248zm-1.248 3.12c2.401-1.406 2.825 0.258 3.744 1.872 0.631-1.119 2.388-3.83 0-4.368-0.96 1.12-3.658 0.50201-3.744 2.496zm14.353 5.616c-0.584 5.993 5.285 5.532 9.361 6.865 0.542-1.538 1.455-2.706 3.745-2.496 0.060997-4.26-3.814-2.662-1.248-6.865-1.959-0.295-1.649 1.68-3.121 1.872v-1.872c-2.327-0.66299-0.988 2.341-3.12 1.872 0.196-0.84401 0.888-1.191 0.624-2.496-2.844-0.76401-2.449 1.712-4.993 1.248-0.524-0.72501-0.823-1.673-0.624-3.12h-1.872c-1.741 1.925 0.339 3.812 1.248 4.992zm14.978 11.234c1.354 0.105 0.283-2.213 0.624-3.12h-1.872c0.277 1.179-0.849 3.76 1.248 3.12z"/>
  <path d="m191.59 100.48c5.825 4.603 9.376 14.719 9.361 23.09 2.147 5.966 8.262 7.965 9.985 14.354-1.964 0.312-2.439-1.36-3.745 0 2.822 0.59601 0.031006 3.559 3.121 3.121 0.23801 3.15-5.43 0.395-5.617 3.12-2.652-0.884-3.752-3.32-4.992-5.616 0.50299-0.537 1.709-0.371 1.872-1.249-0.18199-2.521-3.041-2.367-3.12-4.992-6.043-1.126-6.111-4.909-7.489-9.985 1.827-0.561 1.918-0.561 3.744 0-0.61101-3.797-4.033-10.601-0.62401-14.354-0.621-2.5-3.875-4.989-2.496-7.489zm13.73 33.7c0.256-1.063 0.80501 0.13199 1.872 0 0.37598-2.765-4.049-1.474-1.872 0zm-1.248 5.617c-1.702 0.454-1.256-1.24-2.496-1.248-0.61 2.303 2.344 3.201 2.496 1.248zm3.12 0.624c-2.523-2.195-1.472 2.007 0 0z"/>
  <path d="m154.77 112.33c-3.707-0.517-6.993-2.413-10.609-1.248-0.54399 2.417 2.726 1.02 1.872 3.745-1.834-0.046005-5.911 1.229-8.736 0-0.771 2.019 2.02 0.477 1.248 2.496-3.607-0.487-5.457 0.784-7.489 1.872-4.169-2.071-6.838-5.644-8.112-10.609 2.915 0.621 5.869 1.203 6.864 3.744 3.387-1.157 10.116 0.020996 12.481-4.992 0.886 0.053993 1.768 0.104 1.872-0.624 3.524 1.884 9.447 1.37 10.609 5.616z"/>
  <path d="m108.59 158.52c0.33701 1.692 0.5 1.554 1.249 3.744h-6.865c1.971 2.813 9.08 0.489 13.105 1.249 2.643 3.806 7.705 5.192 7.489 11.857-1.815-0.543-0.702-0.93501-0.624-2.497-6.383 1.188-4.278 7.798-8.113 10.609-3.162 2.318-7.91 0.625-10.609 4.369 1.244 2.708 4.289 3.616 6.865 4.992-0.302 2.164-2.37 1.593-3.745 1.248 0.319 3.155 6.065 1.791 5.617-1.248 2.904-0.2 5.608-0.2 6.24 1.872 2.556-0.149 3.289-2.12 5.617-2.496 0.255-1.504-1.14-1.356-0.624-3.12 1.241-0.83899 2.971-1.19 4.368-1.872 2.254-7.732 4.166-15.805 8.113-21.843 1.594 0.069 1.238 2.09 1.248 3.744-0.276 2.221-2.26 2.733-3.12 4.368 0.005997 7.079-3.564 10.582-4.369 16.851-5.212 2.215-5.014 9.054-8.737 12.481-4.073 3.75-9.902 3.657-14.978 6.864-3.456-1.118-6.99 1.266-10.609 0.62401 0.18 0.031998-9.243-3.61-9.985-4.368-1.013-1.033-1.295-3.173-1.248-4.368-8.972-7.046-15.275-16.761-19.346-28.708-0.694-1.386-2.47-1.69-3.121-3.12 1.132-4.288-3.679-5.574-0.624-8.113 2.205 5.492 4.53 10.864 9.361 13.73-0.325 0.923-0.923 1.572-1.249 2.496 4.637 3.685 4.813 11.829 11.233 13.729 2.587 0.53299 7.676-1.435 7.489 1.872 1.119-1.551 3.469-1.18 4.992 0 1.914-0.791 3.058-2.352 4.369-3.744-0.818-2.719-3.541-3.532-7.489-3.121-0.082001-2.206-1.975-2.602-3.745-3.12 0.172-6.828-7.689-5.624-6.865-13.105 3.02-1.557 2.871-6.281 6.241-7.488 3.951 1.74 6.21-0.47899 9.361-1.249-0.07-1.594-2.09-1.238-3.745-1.248 1.888-5.24 11.733-1.223 16.853-1.871zm-12.481 5.617c2.899-0.366 3.768 0.853 5.617 0-0.119-2.918-4.81-1.616-5.617 0zm19.347 2.496c-10.524 1.29-26.063-3.577-32.452 4.368 0.855 2.308 2.57-0.11601 3.744 1.872 0.098-0.73401-0.107-1.771 0.624-1.872 0.506 3.059 4.417 0.24799 5.617 0 3.712 1.627 5.464 5.593 3.745 9.361-0.427 1.237-3.718-0.39-3.121 1.872 1.125 0.783 4.877 2.148 6.241 0.62401-0.627-1.292-0.728-3.222-0.624-3.744 1.097 0.35901 3.667-0.755 3.745 0.62401-0.496 1.243-1.162 4.044 0.624 5.616 2.212 0.13199 1.232-2.928 3.744-2.496-2.016-2.027-3.115-8.829 0-10.609 4.757-1.22 4.698 2.375 8.113 2.496 3.938-1.157 3.794-6.932 0-8.112zm-21.219 29.955c-1.985-0.095001-2.745-1.415-4.992-1.248-0.406 2.111 4.061 2.539 4.992 1.248zm-0.624 3.121c2.591 5.647 17.064 3.579 18.723-1.249-5.282 1.377-11.887 1.428-18.723 1.249zm18.722 3.12c2.773-0.347 4.423-1.817 4.992-4.369-2.473 0.64699-3.753 2.487-4.992 4.369zm-6.241 3.744c1.106-0.143 3.125 0.629 2.496-1.248h-2.496v1.248zm-4.992 1.872c0.681-2.969-2.03-2.546-4.369-2.496 0.616 1.673 2.609 1.968 4.369 2.496z"/>
 </g>
</svg>
